<svg xmlns="http://www.w3.org/2000/svg" viewBox="0 0 512 512">
  <rect width="512" height="512" fill="#2563eb"/>
  <circle cx="256" cy="256" r="190" fill="#1d4ed8"/>
  <path d="M150 166c0-30 24-54 54-54h104c30 0 54 24 54 54v190h-25v34c0 15-12 27-27 27s-27-12-27-27v-34h-54v34c0 15-12 27-27 27s-27-12-27-27v-34h-25V166Z" fill="#fff"/>
  <rect x="180" y="146" width="152" height="92" rx="20" fill="#dbeafe"/>
  <circle cx="202" cy="322" r="20" fill="#172554"/>
  <circle cx="310" cy="322" r="20" fill="#172554"/>
  <path d="M256 76c42 0 76 34 76 76 0 56-76 121-76 121s-76-65-76-121c0-42 34-76 76-76Z" fill="#f97316" stroke="#fff" stroke-width="13"/>
  <circle cx="256" cy="152" r="27" fill="#fff"/>
</svg>
